<svg width="100" height="100" viewBox="0 0 100 100" fill="none" xmlns="http://www.w3.org/2000/svg">
<path d="M50 9.375C41.9651 9.375 34.1107 11.7576 27.43 16.2215C20.7492 20.6855 15.5422 27.0302 12.4674 34.4535C9.39259 41.8767 8.58808 50.0451 10.1556 57.9255C11.7231 65.806 15.5923 73.0447 21.2738 78.7262C26.9553 84.4077 34.194 88.2769 42.0745 89.8444C49.9549 91.4119 58.1233 90.6074 65.5465 87.5326C72.9698 84.4578 79.3145 79.2508 83.7785 72.57C88.2424 65.8893 90.625 58.0349 90.625 50C90.6128 39.2293 86.3288 28.9033 78.7128 21.2872C71.0967 13.6712 60.7707 9.38718 50 9.375ZM50 84.375C43.2013 84.375 36.5552 82.3589 30.9023 78.5818C25.2493 74.8046 20.8434 69.436 18.2416 63.1547C15.6399 56.8735 14.9591 49.9619 16.2855 43.2938C17.6119 36.6257 20.8858 30.5006 25.6932 25.6932C30.5006 20.8858 36.6257 17.6119 43.2938 16.2855C49.9619 14.9591 56.8735 15.6399 63.1547 18.2416C69.436 20.8434 74.8046 25.2493 78.5818 30.9023C82.3589 36.5552 84.375 43.2013 84.375 50C84.3649 59.1137 80.7401 67.8513 74.2957 74.2957C67.8513 80.7401 59.1137 84.3649 50 84.375ZM69.792 50C69.792 50.8288 69.4628 51.6237 68.8767 52.2097C68.2907 52.7958 67.4958 53.125 66.667 53.125H50C49.1712 53.125 48.3763 52.7958 47.7903 52.2097C47.2042 51.6237 46.875 50.8288 46.875 50V29.167C46.875 28.3382 47.2042 27.5433 47.7903 26.9573C48.3763 26.3712 49.1712 26.042 50 26.042C50.8288 26.042 51.6237 26.3712 52.2097 26.9573C52.7958 27.5433 53.125 28.3382 53.125 29.167V46.875H66.667C67.4958 46.875 68.2907 47.2042 68.8767 47.7903C69.4628 48.3763 69.792 49.1712 69.792 50Z" fill="#8B5CF6"/>
</svg>
