<svg width="50" height="50" viewBox="0 0 50 50" xmlns="http://www.w3.org/2000/svg"><path data-name="copy-Regular" d="m44.244 12.869 -7.113 -7.113a3.617 3.617 0 0 0 -2.577 -1.069H22.917A7.821 7.821 0 0 0 15.104 12.5v0.521H12.5A7.821 7.821 0 0 0 4.688 20.833v16.667A7.821 7.821 0 0 0 12.5 45.313h14.583A7.821 7.821 0 0 0 34.896 37.5v-0.521H37.5A7.821 7.821 0 0 0 45.313 29.167V15.446a3.617 3.617 0 0 0 -1.069 -2.577ZM36.979 10.023l2.998 2.998h-0.785a2.217 2.217 0 0 1 -2.213 -2.213ZM31.771 37.5A4.692 4.692 0 0 1 27.083 42.188H12.5A4.692 4.692 0 0 1 7.813 37.5v-16.667A4.692 4.692 0 0 1 12.5 16.146h2.604V29.167A7.821 7.821 0 0 0 22.917 36.979h8.854ZM37.5 33.854h-14.583A4.692 4.692 0 0 1 18.229 29.167V12.5A4.692 4.692 0 0 1 22.917 7.813h10.938v2.996a5.344 5.344 0 0 0 5.338 5.338h2.996V29.167A4.692 4.692 0 0 1 37.5 33.854Z" style="fill:#808191"/></svg>