<svg width="50" height="50" viewBox="0 0 50 50" xmlns="http://www.w3.org/2000/svg"><path data-name="trash-Regular" d="M43.75 10.938h-7.415a2.606 2.606 0 0 1-2.47-1.771l-.658-1.979a3.638 3.638 0 0 0-3.458-2.5h-9.497a3.635 3.635 0 0 0-3.458 2.5l-.658 1.975a2.606 2.606 0 0 1-2.471 1.781H6.25a1.563 1.563 0 0 0 0 3.125h2.708l1.598 23.958a7.833 7.833 0 0 0 7.796 7.292h13.304a7.833 7.833 0 0 0 7.796-7.292l1.59-23.964h2.708a1.563 1.563 0 0 0 0-3.125ZM19.756 8.169a.525.525 0 0 1 .496-.356h9.496a.525.525 0 0 1 .496.354l.658 1.979a5.785 5.785 0 0 0 .335.792H18.763a5.702 5.702 0 0 0 .335-.794Zm16.573 29.644a4.698 4.698 0 0 1-4.677 4.375H18.348a4.698 4.698 0 0 1-4.677-4.375l-1.588-23.75h1.577a5.798 5.798 0 0 0 .66-.052 1.533 1.533 0 0 0 .263.052h20.834a1.533 1.533 0 0 0 .258-.052 5.798 5.798 0 0 0 .66.052h1.582Zm-5.6-14.896v10.417a1.563 1.563 0 0 1-3.125 0V22.917a1.563 1.563 0 0 1 3.125 0Zm-8.333 0v10.417a1.563 1.563 0 0 1-3.125 0V22.917a1.563 1.563 0 0 1 3.125 0Z" style="fill:#808191"/></svg>