<svg width="100" height="100" viewBox="0 0 100 100" fill="none" xmlns="http://www.w3.org/2000/svg">
<path d="M35.292 35.546C34.7253 34.9564 34.4123 34.1682 34.4202 33.3504C34.428 32.5327 34.7561 31.7506 35.3341 31.172C35.912 30.5934 36.6937 30.2644 37.5114 30.2557C38.3292 30.2469 39.1178 30.559 39.708 31.125L46.875 38.292V16.667C46.875 15.8382 47.2042 15.0433 47.7903 14.4573C48.3763 13.8712 49.1712 13.542 50 13.542C50.8288 13.542 51.6237 13.8712 52.2097 14.4573C52.7958 15.0433 53.125 15.8382 53.125 16.667V38.292L60.292 31.125C60.881 30.5525 61.6717 30.2349 62.493 30.2409C63.3144 30.2469 64.1003 30.5761 64.6808 31.1571C65.2614 31.7382 65.5898 32.5244 65.5951 33.3458C65.6003 34.1671 65.282 34.9575 64.709 35.546L52.209 48.046C51.6225 48.6303 50.8284 48.9584 50.0005 48.9584C49.1726 48.9584 48.3785 48.6303 47.792 48.046L35.292 35.546ZM70.833 42.708C70.0042 42.708 69.2093 43.0372 68.6233 43.6233C68.0372 44.2093 67.708 45.0042 67.708 45.833C67.708 46.6618 68.0372 47.4567 68.6233 48.0427C69.2093 48.6288 70.0042 48.958 70.833 48.958C74.4233 48.9622 77.8653 50.3903 80.404 52.929C82.9427 55.4677 84.3708 58.9097 84.375 62.5V66.667C84.3705 70.2571 82.9423 73.6988 80.4036 76.2373C77.8649 78.7758 74.4231 80.2038 70.833 80.208H29.167C25.5769 80.2038 22.1351 78.7758 19.5964 76.2373C17.0577 73.6988 15.6295 70.2571 15.625 66.667V62.5C15.6292 58.9097 17.0573 55.4677 19.596 52.929C22.1347 50.3903 25.5767 48.9622 29.167 48.958C29.9958 48.958 30.7907 48.6288 31.3767 48.0427C31.9628 47.4567 32.292 46.6618 32.292 45.833C32.292 45.0042 31.9628 44.2093 31.3767 43.6233C30.7907 43.0372 29.9958 42.708 29.167 42.708C23.9199 42.7146 18.8895 44.802 15.1792 48.5122C11.469 52.2225 9.38162 57.2529 9.375 62.5V66.667C9.38188 71.914 11.4693 76.944 15.1796 80.6541C18.8899 84.3642 23.92 86.4514 29.167 86.458H70.833C76.08 86.4514 81.1101 84.3642 84.8204 80.6541C88.5307 76.944 90.6181 71.914 90.625 66.667V62.5C90.6184 57.2529 88.531 52.2225 84.8207 48.5122C81.1105 44.802 76.0801 42.7146 70.833 42.708V42.708ZM75 62.5C75 61.6758 74.7556 60.8702 74.2977 60.1849C73.8399 59.4997 73.1891 58.9656 72.4276 58.6502C71.6662 58.3348 70.8284 58.2523 70.0201 58.4131C69.2117 58.5739 68.4692 58.9707 67.8865 59.5535C67.3037 60.1363 66.9069 60.8787 66.7461 61.6871C66.5853 62.4954 66.6678 63.3332 66.9832 64.0946C67.2986 64.8561 67.8327 65.5069 68.5179 65.9647C69.2032 66.4226 70.0088 66.667 70.833 66.667C71.3802 66.667 71.9221 66.5592 72.4276 66.3498C72.9332 66.1404 73.3926 65.8335 73.7795 65.4465C74.1665 65.0596 74.4734 64.6002 74.6828 64.0946C74.8922 63.5891 75 63.0472 75 62.5Z" fill="#808191"/>
</svg>
