<svg width="250" height="250" viewBox="0 0 250 250" fill="none" xmlns="http://www.w3.org/2000/svg">
<mask id="mask0_2_79" style="mask-type:luminance" maskUnits="userSpaceOnUse" x="25" y="25" width="200" height="200">
<path fill-rule="evenodd" clip-rule="evenodd" d="M25 25H225V225H25V25Z" fill="white"/>
</mask>
<g mask="url(#mask0_2_79)">
<path fill-rule="evenodd" clip-rule="evenodd" d="M125 225C70 225 25 180 25 124.5C25.5 69.4999 70 24.4999 125.5 24.9999C180.5 25.4999 225 69.9999 225 126C224.5 180.5 180 225 125 225Z" fill="#00A3FF"/>
</g>
<path fill-rule="evenodd" clip-rule="evenodd" d="M134.453 113.219L131.468 129.316L159.826 133.34L157.836 140.885L129.975 136.861C127.985 143.4 126.99 150.442 124.502 156.479C122.015 163.521 119.527 170.563 116.542 177.102C112.562 185.654 105.597 191.69 96.1442 193.199C90.6716 194.205 84.7015 193.702 80.2238 190.181C78.7313 189.175 77.2388 187.163 77.2388 185.654C77.2388 183.642 78.2338 181.127 79.7263 180.12C80.7214 179.617 83.2089 180.12 84.7015 180.624C86.194 182.133 87.6865 184.145 88.6816 186.157C91.6666 190.181 95.6467 190.684 99.6268 187.666C104.104 183.642 106.592 178.108 108.085 172.575C111.07 160.503 114.055 148.933 116.542 136.861V134.849L90.1741 130.825L91.1691 123.279L118.532 127.304L122.015 111.71L93.6567 107.183L94.6517 99.1344L124.005 103.159C125 100.14 125.497 97.6254 126.492 95.1103C128.98 86.0559 131.468 77.0016 137.438 68.9533C143.408 60.905 150.373 55.8748 160.821 56.3778C165.298 56.3778 169.776 57.8869 172.761 61.408C173.259 61.911 174.254 62.9171 174.254 63.9231C174.254 65.9352 174.254 68.4503 172.761 69.9593C170.771 71.4684 168.284 70.9654 166.293 68.9533C164.801 67.4442 163.806 65.9352 162.313 64.4261C159.328 60.402 154.851 59.899 151.368 63.4201C148.881 65.9352 146.393 69.4563 144.9 72.9775C141.418 83.5409 138.93 94.6073 135.448 105.674L162.811 109.698L160.821 117.243L134.453 113.219Z" fill="white"/>
</svg>
