<svg width="250" height="250" viewBox="0 0 250 250" fill="none" xmlns="http://www.w3.org/2000/svg">
<mask id="mask0_2_79" style="mask-type:luminance" maskUnits="userSpaceOnUse" x="22" y="22" width="207" height="207">
<path fill-rule="evenodd" clip-rule="evenodd" d="M22 22H229V229H22V22Z" fill="white"/>
</mask>
<g mask="url(#mask0_2_79)">
<path fill-rule="evenodd" clip-rule="evenodd" d="M125.5 229C68.575 229 22 182.425 22 124.983C22.5175 68.0575 68.575 21.4825 126.018 22C182.943 22.5175 229 68.575 229 126.535C228.483 182.943 182.425 229 125.5 229Z" fill="#00A3FF"/>
</g>
<path fill-rule="evenodd" clip-rule="evenodd" d="M135.284 113.307L132.194 129.967L161.545 134.132L159.485 141.941L130.649 137.776C128.59 144.544 127.56 151.833 124.985 158.08C122.41 165.369 119.836 172.658 116.746 179.426C112.627 188.277 105.418 194.524 95.6343 196.086C89.9701 197.127 83.791 196.607 79.1567 192.962C77.6119 191.921 76.0671 189.838 76.0671 188.277C76.0671 186.194 77.097 183.591 78.6418 182.55C79.6716 182.029 82.2462 182.55 83.791 183.07C85.3358 184.632 86.8806 186.715 87.9104 188.797C91 192.962 95.1194 193.483 99.2388 190.359C103.873 186.194 106.448 180.467 107.993 174.74C111.082 162.245 114.172 150.271 116.746 137.776V135.693L89.4552 131.529L90.4851 123.719L118.806 127.884L122.41 111.745L93.0597 107.059L94.0895 98.7291L124.47 102.894C125.5 99.7704 126.015 97.1673 127.045 94.5642C129.619 85.1929 132.194 75.8217 138.373 67.4917C144.552 59.1617 151.761 53.9554 162.575 54.4761C167.209 54.4761 171.843 56.0379 174.933 59.6823C175.448 60.2029 176.478 61.2442 176.478 62.2854C176.478 64.3679 176.478 66.971 174.933 68.5329C172.873 70.0948 170.298 69.5742 168.239 67.4917C166.694 65.9298 165.664 64.3679 164.119 62.806C161.03 58.641 156.395 58.1204 152.791 61.7648C150.216 64.3679 147.642 68.0123 146.097 71.6567C142.493 82.5898 139.918 94.0435 136.313 105.497L164.634 109.662L162.575 117.472L135.284 113.307Z" fill="white"/>
</svg>
