<svg width="100" height="100" viewBox="0 0 100 100" fill="none" xmlns="http://www.w3.org/2000/svg">
<path d="M70.8333 30.2083H53.3333C52.8187 30.2094 52.3118 30.0828 51.8581 29.84C51.4043 29.5971 51.0179 29.2455 50.7333 28.8167L46.1083 21.8833C45.2524 20.5997 44.0924 19.5475 42.7315 18.8206C41.3707 18.0936 39.8512 17.7144 38.3083 17.7167H29.1667C23.9211 17.7233 18.8921 19.8094 15.1821 23.5179C11.4721 27.2263 9.38382 32.2544 9.375 37.5V66.6667C9.38162 71.9137 11.4689 76.944 15.1792 80.6542C18.8894 84.3644 23.9196 86.4517 29.1667 86.4583H70.8333C76.0804 86.4517 81.1106 84.3644 84.8208 80.6542C88.5311 76.944 90.6184 71.9137 90.625 66.6667V50C90.6184 44.753 88.5311 39.7227 84.8208 36.0125C81.1106 32.3023 76.0804 30.215 70.8333 30.2083ZM84.375 66.6667C84.3706 70.2568 82.9425 73.6986 80.4039 76.2372C77.8653 78.7758 74.4234 80.2039 70.8333 80.2083H29.1667C25.5765 80.2039 22.1347 78.7758 19.5961 76.2372C17.0575 73.6986 15.6294 70.2568 15.625 66.6667V37.5C15.6294 33.9099 17.0575 30.4681 19.5961 27.9295C22.1347 25.3909 25.5765 23.9627 29.1667 23.9583H38.3333C38.848 23.9573 39.3549 24.0838 39.8086 24.3267C40.2624 24.5696 40.6488 24.9212 40.9333 25.35L45.5583 32.2833C46.4143 33.567 47.5743 34.6191 48.9351 35.3461C50.296 36.0731 51.8155 36.4523 53.3583 36.45H70.8333C74.4249 36.4544 77.868 37.8837 80.4068 40.4241C82.9456 42.9645 84.3728 46.4084 84.375 50V66.6667Z" fill="#8B5CF6"/>
</svg>
