<svg width="100" height="100" viewBox="0 0 100 100" fill="none" xmlns="http://www.w3.org/2000/svg">
<path d="M83.792 23.333C81.3541 20.2783 78.2595 17.8119 74.7379 16.1169C71.2163 14.4219 67.3582 13.5419 63.45 13.542C58.7561 13.5249 54.1325 14.682 50 16.908C45.8675 14.682 41.2439 13.5249 36.55 13.542C32.6417 13.5419 28.7836 14.4219 25.2621 16.1169C21.7405 17.8119 18.6459 20.2783 16.208 23.333C13.3983 26.7987 11.381 30.8374 10.2976 35.1655C9.21432 39.4936 9.09122 44.0063 9.93699 48.387C13.995 69.22 35.199 83.745 44.129 89.029C45.907 90.0821 47.9355 90.6377 50.002 90.6377C52.0685 90.6377 54.0969 90.0821 55.875 89.029C64.8 83.746 86.004 69.204 90.042 48.387C90.8906 44.0078 90.7709 39.496 89.6912 35.1679C88.6116 30.8399 86.5981 26.8005 83.792 23.333ZM83.93 47.191C80.355 65.524 60.892 78.795 52.68 83.649C51.8671 84.1329 50.9386 84.3884 49.9925 84.3884C49.0464 84.3884 48.1179 84.1329 47.305 83.649C39.101 78.795 19.638 65.52 16.055 47.191C15.3815 43.7119 15.4781 40.1275 16.3381 36.6897C17.1981 33.2519 18.8006 30.0442 21.033 27.292C22.8903 24.9569 25.2496 23.0702 27.9359 21.7718C30.6222 20.4734 33.5664 19.7967 36.55 19.792C40.7144 19.7686 44.7981 20.9399 48.317 23.167C48.82 23.4875 49.404 23.6577 50.0005 23.6577C50.5969 23.6577 51.181 23.4875 51.684 23.167C55.2029 20.9399 59.2866 19.7686 63.451 19.792C66.4346 19.7967 69.3788 20.4734 72.0651 21.7718C74.7514 23.0702 77.1107 24.9569 78.968 27.292C81.1951 30.0437 82.7932 33.2494 83.6502 36.6841C84.5072 40.1189 84.6024 43.6996 83.929 47.175L83.93 47.191Z" fill="#8B5CF6"/>
</svg>
