<svg width="100" height="100" viewBox="0 0 100 100" fill="none" xmlns="http://www.w3.org/2000/svg">
<path d="M83.2417 30.4708L62.4083 13.725C58.8813 10.9187 54.5072 9.39086 50 9.39086C45.4928 9.39086 41.1187 10.9187 37.5917 13.725L16.7583 30.4708C14.4474 32.3198 12.5833 34.6662 11.305 37.3355C10.0266 40.0047 9.36694 42.9279 9.37501 45.8875V70.8333C9.38274 76.0785 11.4709 81.1064 15.1814 84.8137C18.8919 88.5211 23.9215 90.605 29.1667 90.6083H40.625V70.8333C40.625 68.3469 41.6127 65.9624 43.3709 64.2042C45.129 62.4461 47.5136 61.4583 50 61.4583C52.4864 61.4583 54.871 62.4461 56.6291 64.2042C58.3873 65.9624 59.375 68.3469 59.375 70.8333V90.6042H70.8333C76.0778 90.6009 81.1068 88.5175 84.8172 84.811C88.5275 81.1046 90.6162 76.0778 90.625 70.8333V45.8708C90.6306 42.9141 89.9697 39.9941 88.6914 37.328C87.4131 34.6618 85.5504 32.318 83.2417 30.4708ZM84.375 70.8333C84.3695 74.4216 82.9405 77.861 80.4016 80.3967C77.8628 82.9325 74.4216 84.3572 70.8333 84.3583H65.625V70.8333C65.625 66.6893 63.9788 62.715 61.0486 59.7848C58.1183 56.8545 54.144 55.2083 50 55.2083C45.856 55.2083 41.8817 56.8545 38.9515 59.7848C36.0212 62.715 34.375 66.6893 34.375 70.8333V84.3542H29.1667C25.5791 84.3531 22.1386 82.9289 19.5998 80.3941C17.0611 77.8592 15.6316 74.4209 15.625 70.8333V45.8708C15.6208 43.8494 16.0723 41.8531 16.9458 40.0302C17.8194 38.2073 19.0926 36.6047 20.6708 35.3417L41.5042 18.5958C43.9197 16.6759 46.9144 15.6308 50 15.6308C53.0856 15.6308 56.0803 16.6759 58.4958 18.5958L79.3292 35.3417C80.9074 36.6047 82.1806 38.2073 83.0542 40.0302C83.9278 41.8531 84.3792 43.8494 84.375 45.8708V70.8333Z" fill="#8B5CF6"/>
</svg>
