<svg width="50" height="50" viewBox="0 0 50 50" xmlns="http://www.w3.org/2000/svg"><path data-name="globe-Regular" d="M44.142 18.233A20.179 20.179 0 0 0 27.917 4.89a21.002 21.002 0 0 0-5.817 0A20.165 20.165 0 0 0 5.873 18.223a20.131 20.131 0 0 0 0 13.542 20.179 20.179 0 0 0 16.233 13.333 20.983 20.983 0 0 0 2.917.208 20.665 20.665 0 0 0 2.917-.208 20.165 20.165 0 0 0 16.227-13.333 20.131 20.131 0 0 0 0-13.542ZM40.3 17.191h-6.342a33.712 33.712 0 0 0-3.006-8.285 17.01 17.01 0 0 1 9.348 8.283ZM42.188 25a16.852 16.852 0 0 1-.669 4.69h-6.985a34.279 34.279 0 0 0 .362-4.69 34.14 34.14 0 0 0-.36-4.685h6.985A16.854 16.854 0 0 1 42.188 25Zm-23.567 4.69a30.963 30.963 0 0 1-.392-4.69 30.998 30.998 0 0 1 .392-4.685h12.76a31.2 31.2 0 0 1 .39 4.685 31.029 31.029 0 0 1-.392 4.69Zm-10.14 0a16.762 16.762 0 0 1 0-9.375h6.985A33.917 33.917 0 0 0 15.104 25a34.227 34.227 0 0 0 .362 4.69ZM26.769 7.936a30.833 30.833 0 0 1 3.983 9.254H19.246a30.867 30.867 0 0 1 3.985-9.254A17.623 17.623 0 0 1 25 7.813a17.581 17.581 0 0 1 1.769.123Zm-7.725.969a33.869 33.869 0 0 0-3.002 8.285H9.7a17 17 0 0 1 9.344-8.285Zm-9.342 23.91h6.34a33.958 33.958 0 0 0 3.004 8.281 17 17 0 0 1-9.344-8.281Zm13.529 9.25a30.883 30.883 0 0 1-3.983-9.25h11.504a30.846 30.846 0 0 1-3.983 9.25 17.917 17.917 0 0 1-3.538 0Zm7.725-.969a33.856 33.856 0 0 0 3.002-8.281h6.338a16.996 16.996 0 0 1-9.34 8.281Z" style="fill:#1dc071"/></svg>