<svg width="40" height="40" viewBox="0 0 40 40" fill="none" xmlns="http://www.w3.org/2000/svg">
<path d="M31 13.92C31 20.359 26 21.359 26 27.36C26 30.458 22.877 30.719 20.5 30.719C18.447 30.719 13.914 29.94 13.914 27.358C13.914 21.36 9 20.36 9 13.92C9 7.889 14.285 3 20.083 3C25.883 3 31 7.889 31 13.92Z" fill="#FFD983"/>
<path d="M24.167 35.36C24.167 36.188 21.933 37.86 20 37.86C18.067 37.86 15.833 36.188 15.833 35.36C15.833 34.532 18.066 34.86 20 34.86C21.933 34.86 24.167 34.532 24.167 35.36Z" fill="#CCD6DD"/>
<path d="M24.707 13.153C24.316 12.762 23.684 12.762 23.293 13.153L20 16.446L16.707 13.153C16.316 12.762 15.684 12.762 15.293 13.153C14.902 13.544 14.902 14.176 15.293 14.567L19 18.274V28.86C19 29.413 19.448 29.86 20 29.86C20.552 29.86 21 29.413 21 28.86V18.274L24.707 14.567C25.098 14.176 25.098 13.544 24.707 13.153Z" fill="#FFCC4D"/>
<path d="M26 33.86C26 34.964 25.104 35.86 24 35.86H16C14.896 35.86 14 34.964 14 33.86V27.86H26V33.86Z" fill="#99AAB5"/>
<path d="M13.999 34.86C13.519 34.86 13.095 34.513 13.014 34.024C12.923 33.48 13.291 32.964 13.836 32.874L25.836 30.874C26.38 30.776 26.896 31.151 26.986 31.696C27.077 32.24 26.709 32.756 26.164 32.846L14.164 34.846C14.109 34.856 14.053 34.86 13.999 34.86ZM13.999 30.86C13.519 30.86 13.095 30.513 13.014 30.024C12.923 29.48 13.291 28.964 13.836 28.874L25.836 26.874C26.38 26.777 26.896 27.151 26.986 27.696C27.077 28.24 26.709 28.756 26.164 28.846L14.164 30.846C14.109 30.856 14.053 30.86 13.999 30.86Z" fill="#CCD6DD"/>
</svg>
