<svg width="50" height="50" viewBox="0 0 50 50" xmlns="http://www.w3.org/2000/svg"><path data-name="image-Filled" d="M35.417 6.25H14.583a10.429 10.429 0 0 0 -10.417 10.417v16.667a10.429 10.429 0 0 0 10.417 10.417h20.833a10.429 10.429 0 0 0 10.417 -10.417V16.667a10.429 10.429 0 0 0 -10.417 -10.417ZM14.583 10.417h20.833a6.25 6.25 0 0 1 6.25 6.25v9.554L34.202 18.75a4.181 4.181 0 0 0 -5.904 0L18.75 28.304 17.535 27.083a4.181 4.181 0 0 0 -5.904 0L8.333 30.388V16.667a6.25 6.25 0 0 1 6.25 -6.25Zm-1.042 8.333A3.125 3.125 0 1 1 16.667 21.875 3.125 3.125 0 0 1 13.542 18.75Z" style="fill:#fff"/></svg>