<svg width="100" height="100" viewBox="0 0 100 100" fill="none" xmlns="http://www.w3.org/2000/svg">
<path d="M70.8333 13.5417H29.1667C23.9196 13.5483 18.8894 15.6356 15.1792 19.3458C11.4689 23.056 9.38162 28.0863 9.375 33.3333V66.6667C9.38724 68.182 9.57602 69.6908 9.9375 71.1625C9.97821 71.3582 10.0382 71.5494 10.1167 71.7333C11.2271 75.9431 13.6963 79.6684 17.141 82.331C20.5856 84.9936 24.813 86.4445 29.1667 86.4583H70.8333C76.0804 86.4517 81.1106 84.3644 84.8208 80.6542C88.5311 76.944 90.6184 71.9137 90.625 66.6667V33.3333C90.6184 28.0863 88.5311 23.056 84.8208 19.3458C81.1106 15.6356 76.0804 13.5483 70.8333 13.5417ZM29.1667 19.7917H70.8333C74.4234 19.7961 77.8653 21.2242 80.4039 23.7628C82.9425 26.3014 84.3706 29.7432 84.375 33.3333V54.9542L67.6667 38.25C66.2956 36.8811 64.4374 36.1123 62.5 36.1123C60.5626 36.1123 58.7044 36.8811 57.3333 38.25L37.5 58.0792L34.3333 54.9167C32.9623 53.5478 31.1041 52.7789 29.1667 52.7789C27.2293 52.7789 25.371 53.5478 24 54.9167L15.625 63.2875V33.3333C15.6294 29.7432 17.0575 26.3014 19.5961 23.7628C22.1347 21.2242 25.5765 19.7961 29.1667 19.7917ZM70.8333 80.2083H29.1667C26.3884 80.1986 23.6806 79.3335 21.4113 77.7307C19.142 76.1279 17.4214 73.8651 16.4833 71.25L28.4167 59.3333C28.5 59.2113 28.6119 59.1115 28.7426 59.0425C28.8733 58.9735 29.0189 58.9374 29.1667 58.9374C29.3145 58.9374 29.46 58.9735 29.5907 59.0425C29.7214 59.1115 29.8333 59.2113 29.9167 59.3333L33.8333 63.25C34.8061 64.222 36.1249 64.7679 37.5 64.7679C38.8751 64.7679 40.1939 64.222 41.1667 63.25L61.75 42.6667C61.9512 42.4722 62.2201 42.3635 62.5 42.3635C62.7799 42.3635 63.0488 42.4722 63.25 42.6667L84.375 63.7958V66.6667C84.3706 70.2568 82.9425 73.6986 80.4039 76.2372C77.8653 78.7758 74.4234 80.2039 70.8333 80.2083ZM29.1667 37.5C29.1667 36.6759 29.411 35.8703 29.8689 35.1851C30.3267 34.4999 30.9775 33.9659 31.7388 33.6505C32.5002 33.3351 33.338 33.2526 34.1462 33.4134C34.9545 33.5742 35.6969 33.971 36.2796 34.5537C36.8623 35.1364 37.2592 35.8789 37.4199 36.6871C37.5807 37.4954 37.4982 38.3332 37.1828 39.0945C36.8675 39.8559 36.3334 40.5066 35.6482 40.9645C34.963 41.4223 34.1574 41.6667 33.3333 41.6667C32.2283 41.6667 31.1685 41.2277 30.3871 40.4463C29.6057 39.6649 29.1667 38.6051 29.1667 37.5Z" fill="#8B5CF6"/>
</svg>
