<svg width="250" height="250" viewBox="0 0 250 250" fill="none" xmlns="http://www.w3.org/2000/svg">
<path d="M40 173.995L124.863 222.993L209.726 173.995V75.9982L124.863 27L40 75.9982V173.995Z" fill="#469EA2"/>
<path d="M116.175 38.7192L54.5479 74.2808C54.6489 75.3898 54.6489 76.5056 54.5479 77.6146L116.073 113.176C118.603 111.306 121.666 110.297 124.812 110.297C127.958 110.297 131.021 111.306 133.551 113.176L195.077 77.6146C194.976 76.5056 194.976 75.3898 195.077 74.2808L133.652 38.7192C131.122 40.5895 128.059 41.5989 124.913 41.5989C121.767 41.5989 118.704 40.5895 116.175 38.7192ZM201.037 87.4143L139.411 123.38C139.745 126.499 139.084 129.644 137.524 132.366C135.964 135.088 133.583 137.246 130.722 138.534L130.823 209.253C131.82 209.693 132.768 210.234 133.652 210.87L195.178 175.308C194.844 172.189 195.504 169.044 197.065 166.322C198.625 163.6 201.005 161.442 203.866 160.154V89.0307C202.881 88.5689 201.935 88.0284 201.037 87.4143ZM48.6883 87.8184C47.8039 88.4537 46.8559 88.9954 45.8596 89.4348V160.558C48.7552 161.8 51.1686 163.95 52.7357 166.683C54.3029 169.417 54.9389 172.586 54.5479 175.712L116.073 211.274C116.958 210.638 117.906 210.097 118.902 209.657V138.534C116.007 137.292 113.593 135.142 112.026 132.409C110.459 129.675 109.823 126.506 110.214 123.38L48.6883 87.8184Z" fill="#6ACAD1"/>
<path d="M124.863 37.6078L200.734 81.4537V169.044L124.863 212.89L48.9914 169.044V81.3526L124.863 37.6078ZM124.863 27.202L40 76.2002V174.197L124.863 223.195L209.726 174.197V76.2002L124.863 27.202Z" fill="#469EA2"/>
<path d="M125.469 141.666H124.257C122.172 141.671 120.107 141.265 118.181 140.469C116.254 139.674 114.503 138.506 113.029 137.032C111.555 135.558 110.387 133.808 109.592 131.881C108.797 129.954 108.39 127.889 108.395 125.805V124.592C108.39 122.508 108.797 120.443 109.592 118.516C110.387 116.589 111.555 114.839 113.029 113.365C114.503 111.891 116.254 110.723 118.181 109.928C120.107 109.132 122.172 108.726 124.257 108.731H125.469C127.553 108.726 129.618 109.132 131.545 109.928C133.472 110.723 135.223 111.891 136.697 113.365C138.17 114.839 139.339 116.589 140.134 118.516C140.929 120.443 141.336 122.508 141.33 124.592V125.805C141.336 127.889 140.929 129.954 140.134 131.881C139.339 133.808 138.17 135.558 136.697 137.032C135.223 138.506 133.472 139.674 131.545 140.469C129.618 141.265 127.553 141.671 125.469 141.666ZM125.469 206.828H124.257C121.439 206.82 118.67 207.565 116.236 208.986C113.803 210.407 111.793 212.452 110.416 214.911L124.863 223.195L139.31 214.911C137.932 212.452 135.923 210.407 133.489 208.986C131.056 207.565 128.287 206.82 125.469 206.828ZM209.827 157.83H209.221C207.136 157.825 205.071 158.232 203.144 159.027C201.218 159.822 199.467 160.99 197.993 162.464C196.519 163.938 195.351 165.689 194.556 167.615C193.761 169.542 193.354 171.607 193.359 173.692V174.904C193.345 177.596 194.042 180.245 195.38 182.582L209.827 174.197V157.83ZM195.38 67.916C194.054 70.2576 193.357 72.9031 193.359 75.5941V76.8064C193.354 78.8908 193.761 80.9558 194.556 82.8826C195.351 84.8093 196.519 86.56 197.993 88.0339C199.467 89.5078 201.218 90.676 203.144 91.4712C205.071 92.2664 207.136 92.673 209.221 92.6677H209.827V76.2002L195.38 67.916ZM124.863 27.202L110.416 35.4863C111.787 37.9578 113.792 40.0191 116.225 41.4575C118.658 42.8959 121.43 43.6595 124.257 43.6695H125.469C128.287 43.678 131.056 42.9332 133.489 41.5122C135.923 40.0912 137.932 38.0456 139.31 35.5873L124.863 27.202ZM54.4469 67.815L40 76.2002V92.6677H40.6062C42.6906 92.673 44.7555 92.2664 46.6823 91.4712C48.6091 90.676 50.3597 89.5078 51.8337 88.0339C53.3076 86.56 54.4757 84.8093 55.2709 82.8826C56.0661 80.9558 56.4728 78.8908 56.4674 76.8064V75.5941C56.4332 72.8758 55.7399 70.2064 54.4469 67.815ZM40.6062 157.83H40V174.197L54.4469 182.582C55.7731 180.24 56.4693 177.595 56.4674 174.904V173.692C56.4728 171.607 56.0661 169.542 55.2709 167.615C54.4757 165.689 53.3076 163.938 51.8337 162.464C50.3597 160.99 48.6091 159.822 46.6823 159.027C44.7555 158.232 42.6906 157.825 40.6062 157.83Z" fill="#469EA2"/>
<path d="M124.863 223.7V125.603L40 76.6044V174.702L124.863 223.7Z" fill="#083B54" fill-opacity="0.15"/>
<path d="M209.827 173.793V75.7961L124.964 124.794V222.892L209.827 173.793Z" fill="#083B54" fill-opacity="0.05"/>
</svg>
