<svg width="100" height="100" viewBox="0 0 100 100" fill="none" xmlns="http://www.w3.org/2000/svg">
<path d="M84.867 42.875L77.204 50.542C76.9155 50.8389 76.5708 51.0754 76.19 51.238C75.8093 51.4005 75.4 51.4858 74.986 51.4888C74.5721 51.4918 74.1616 51.4126 73.7785 51.2556C73.3954 51.0987 73.0473 50.8672 72.7545 50.5746C72.4616 50.282 72.2298 49.9341 72.0725 49.5511C71.9152 49.1682 71.8356 48.7578 71.8382 48.3438C71.8409 47.9298 71.9258 47.5205 72.088 47.1396C72.2502 46.7587 72.4864 46.4138 72.783 46.125L80.45 38.454C82.9535 35.9436 84.3594 32.5429 84.3594 28.9975C84.3594 25.4521 82.9535 22.0514 80.45 19.541C77.903 17.1097 74.5172 15.7532 70.996 15.7532C67.4749 15.7532 64.0891 17.1097 61.542 19.541L47.546 33.542C47.08 33.9944 46.6612 34.4929 46.296 35.03C44.3613 37.595 43.4218 40.7743 43.6517 43.979C43.8815 47.1836 45.265 50.1963 47.546 52.459C47.8426 52.7478 48.0789 53.0927 48.2411 53.4736C48.4032 53.8545 48.4881 54.2638 48.4908 54.6778C48.4934 55.0918 48.4138 55.5022 48.2565 55.8851C48.0992 56.2681 47.8674 56.616 47.5746 56.9086C47.2817 57.2012 46.9336 57.4327 46.5505 57.5896C46.1674 57.7466 45.7569 57.8258 45.343 57.8228C44.929 57.8197 44.5197 57.7345 44.139 57.572C43.7582 57.4094 43.4136 57.1729 43.125 56.876C39.7943 53.5903 37.7608 49.2132 37.398 44.5486C37.0352 39.8841 38.3674 35.2452 41.15 31.484C41.7264 30.6328 42.3881 29.8427 43.125 29.126L57.121 15.126C58.9401 13.2906 61.1039 11.8327 63.488 10.8358C65.8721 9.83898 68.4297 9.32292 71.0138 9.31725C73.5979 9.31159 76.1578 9.81645 78.5462 10.8028C80.9347 11.7892 83.1048 13.2377 84.932 15.0651C86.7591 16.8925 88.2072 19.0628 89.1933 21.4514C90.1793 23.84 90.6838 26.3999 90.6778 28.984C90.6717 31.5682 90.1553 34.1256 89.1581 36.5096C88.1609 38.8936 86.7026 41.0572 84.867 42.876V42.875ZM52.454 43.125C52.1637 43.4149 51.9334 43.7591 51.7763 44.1381C51.6191 44.517 51.5383 44.9233 51.5383 45.3335C51.5383 45.7437 51.6191 46.15 51.7763 46.5289C51.9334 46.9079 52.1637 47.2521 52.454 47.542C54.261 49.3251 55.5163 51.5908 56.0697 54.0684C56.6232 56.5459 56.4515 59.1305 55.575 61.513C54.9309 63.3807 53.8626 65.0737 52.454 66.459L38.458 80.458C35.911 82.8893 32.5252 84.2458 29.004 84.2458C25.4829 84.2458 22.0971 82.8893 19.55 80.458C17.0465 77.9476 15.6406 74.5469 15.6406 71.0015C15.6406 67.4561 17.0465 64.0554 19.55 61.545L27.217 53.874C27.5136 53.5852 27.7499 53.2403 27.9121 52.8594C28.0742 52.4785 28.1591 52.0692 28.1618 51.6552C28.1644 51.2412 28.0848 50.8308 27.9275 50.4479C27.7702 50.0649 27.5384 49.717 27.2456 49.4244C26.9527 49.1318 26.6046 48.9003 26.2215 48.7434C25.8384 48.5864 25.428 48.5072 25.014 48.5102C24.6 48.5133 24.1907 48.5985 23.81 48.761C23.4292 48.9236 23.0846 49.1601 22.796 49.457L15.133 57.125C13.2974 58.9438 11.8391 61.1074 10.8419 63.4914C9.84473 65.8754 9.32829 68.4328 9.32226 71.017C9.31622 73.6011 9.82071 76.161 10.8067 78.5496C11.7928 80.9382 13.2409 83.1085 15.0681 84.9359C16.8952 86.7633 19.0653 88.2118 21.4538 89.1982C23.8423 90.1846 26.4021 90.6894 28.9862 90.6837C31.5703 90.6781 34.1279 90.162 36.512 89.1652C38.8962 88.1683 41.0599 86.7104 42.879 84.875L56.875 70.875C58.9532 68.8235 60.5289 66.3193 61.479 63.558C62.7154 60.067 62.9392 56.2976 62.1245 52.6848C61.3098 49.0721 59.49 45.7635 56.875 43.141C56.5858 42.8495 56.2421 42.6179 55.8634 42.4593C55.4846 42.3008 55.0784 42.2184 54.6678 42.2169C54.2573 42.2154 53.8504 42.2949 53.4706 42.4507C53.0907 42.6065 52.7453 42.8356 52.454 43.125V43.125Z" fill="#808191"/>
</svg>
