<svg width="200" height="200" viewBox="0 0 200 200" fill="none" xmlns="http://www.w3.org/2000/svg">
<path d="M100.96 48H99.04C96.2565 48 94 50.2565 94 53.04V66.96C94 69.7435 96.2565 72 99.04 72H100.96C103.744 72 106 69.7435 106 66.96V53.04C106 50.2565 103.744 48 100.96 48Z" fill="#8B5CF6"/>
<path d="M126.831 55.4467L125.169 54.4867C122.758 53.0949 119.676 53.9208 118.284 56.3314L111.324 68.3865C109.932 70.7971 110.758 73.8795 113.169 75.2713L114.831 76.2313C117.242 77.623 120.324 76.7971 121.716 74.3865L128.676 62.3314C130.068 59.9208 129.242 56.8384 126.831 55.4467Z" fill="#8B5CF6"/>
<path d="M145.513 74.8314L144.553 73.1686C143.162 70.758 140.079 69.9321 137.669 71.3238L125.613 78.2838C123.203 79.6756 122.377 82.758 123.769 85.1686L124.729 86.8314C126.12 89.242 129.203 90.0679 131.613 88.6761L143.669 81.7161C146.079 80.3244 146.905 77.242 145.513 74.8314Z" fill="#8B5CF6"/>
<path d="M152 100.96V99.04C152 96.2565 149.744 94 146.96 94H133.04C130.256 94 128 96.2565 128 99.04V100.96C128 103.744 130.256 106 133.04 106H146.96C149.744 106 152 103.744 152 100.96Z" fill="#8B5CF6"/>
<path d="M144.553 126.831L145.513 125.169C146.905 122.758 146.079 119.676 143.669 118.284L131.613 111.324C129.203 109.932 126.12 110.758 124.729 113.169L123.769 114.831C122.377 117.242 123.203 120.324 125.613 121.716L137.669 128.676C140.079 130.068 143.162 129.242 144.553 126.831Z" fill="#8B5CF6"/>
<path d="M125.169 145.513L126.831 144.553C129.242 143.162 130.068 140.079 128.676 137.669L121.716 125.613C120.324 123.203 117.242 122.377 114.831 123.769L113.169 124.729C110.758 126.12 109.932 129.203 111.324 131.613L118.284 143.669C119.676 146.079 122.758 146.905 125.169 145.513Z" fill="#8B5CF6"/>
<path d="M99.04 152H100.96C103.744 152 106 149.744 106 146.96V133.04C106 130.256 103.744 128 100.96 128H99.04C96.2565 128 94 130.256 94 133.04V146.96C94 149.744 96.2565 152 99.04 152Z" fill="#8B5CF6"/>
<path d="M73.1686 144.553L74.8314 145.513C77.242 146.905 80.3244 146.079 81.7162 143.669L88.6762 131.613C90.0679 129.203 89.242 126.12 86.8314 124.729L85.1686 123.769C82.758 122.377 79.6756 123.203 78.2839 125.613L71.3239 137.669C69.9321 140.079 70.758 143.162 73.1686 144.553Z" fill="#8B5CF6"/>
<path d="M54.4867 125.169L55.4467 126.831C56.8384 129.242 59.9208 130.068 62.3314 128.676L74.3865 121.716C76.7971 120.324 77.623 117.242 76.2313 114.831L75.2713 113.169C73.8795 110.758 70.7971 109.932 68.3865 111.324L56.3314 118.284C53.9208 119.676 53.0949 122.758 54.4867 125.169Z" fill="#8B5CF6"/>
<path d="M48 99.04V100.96C48 103.744 50.2565 106 53.04 106H66.96C69.7435 106 72 103.744 72 100.96V99.04C72 96.2565 69.7435 94 66.96 94H53.04C50.2565 94 48 96.2565 48 99.04Z" fill="#8B5CF6"/>
<path d="M55.4467 73.1686L54.4867 74.8314C53.0949 77.242 53.9208 80.3244 56.3314 81.7162L68.3865 88.6762C70.7971 90.0679 73.8795 89.242 75.2713 86.8314L76.2313 85.1686C77.623 82.758 76.7971 79.6756 74.3865 78.2839L62.3314 71.3239C59.9208 69.9321 56.8384 70.758 55.4467 73.1686Z" fill="#8B5CF6"/>
<path d="M74.8314 54.4867L73.1686 55.4467C70.758 56.8384 69.9321 59.9208 71.3238 62.3314L78.2838 74.3865C79.6756 76.7971 82.758 77.623 85.1686 76.2313L86.8314 75.2713C89.242 73.8795 90.0679 70.7971 88.6761 68.3865L81.7161 56.3314C80.3244 53.9208 77.242 53.0949 74.8314 54.4867Z" fill="#8B5CF6"/>
</svg>
