<svg width="100" height="100" viewBox="0 0 100 100" fill="none" xmlns="http://www.w3.org/2000/svg">
<path d="M53.125 87.5C53.125 88.3288 52.7958 89.1237 52.2097 89.7097C51.6236 90.2958 50.8288 90.625 50 90.625H33.333C28.086 90.6181 23.056 88.5307 19.3459 84.8204C15.6358 81.1101 13.5486 76.08 13.542 70.833V29.167C13.5486 23.92 15.6358 18.8899 19.3459 15.1796C23.056 11.4693 28.086 9.38188 33.333 9.375H50C50.8288 9.375 51.6236 9.70424 52.2097 10.2903C52.7958 10.8763 53.125 11.6712 53.125 12.5C53.125 13.3288 52.7958 14.1237 52.2097 14.7097C51.6236 15.2958 50.8288 15.625 50 15.625H33.333C29.7429 15.6295 26.3012 17.0577 23.7627 19.5964C21.2242 22.1351 19.7962 25.5769 19.792 29.167V70.833C19.7962 74.4231 21.2242 77.8649 23.7627 80.4036C26.3012 82.9423 29.7429 84.3705 33.333 84.375H50C50.8288 84.375 51.6236 84.7042 52.2097 85.2903C52.7958 85.8763 53.125 86.6712 53.125 87.5ZM85.542 47.792L68.875 31.125C68.5862 30.8284 68.2413 30.5921 67.8604 30.43C67.4795 30.2678 67.0702 30.1829 66.6562 30.1802C66.2422 30.1776 65.8318 30.2572 65.4489 30.4145C65.0659 30.5718 64.718 30.8036 64.4254 31.0965C64.1328 31.3893 63.9013 31.7374 63.7444 32.1205C63.5874 32.5036 63.5082 32.9141 63.5112 33.328C63.5142 33.742 63.5995 34.1513 63.762 34.532C63.9246 34.9128 64.1611 35.2574 64.458 35.546L75.787 46.875H41.667C40.8382 46.875 40.0433 47.2042 39.4573 47.7903C38.8712 48.3763 38.542 49.1712 38.542 50C38.542 50.8288 38.8712 51.6237 39.4573 52.2097C40.0433 52.7958 40.8382 53.125 41.667 53.125H75.788L64.458 64.458C63.885 65.0465 63.5667 65.8369 63.5719 66.6582C63.5772 67.4796 63.9056 68.2658 64.4862 68.8469C65.0667 69.4279 65.8526 69.7571 66.674 69.7631C67.4953 69.7691 68.286 69.4515 68.875 68.879L85.542 52.212C85.8323 51.9218 86.0625 51.5773 86.2196 51.1981C86.3767 50.8189 86.4576 50.4124 86.4576 50.002C86.4576 49.5915 86.3767 49.1851 86.2196 48.8059C86.0625 48.4267 85.8323 48.0822 85.542 47.792Z" fill="#8B5CF6"/>
</svg>
