<svg width="100" height="100" viewBox="0 0 100 100" fill="none" xmlns="http://www.w3.org/2000/svg">
<path d="M9.375 20.833C9.375 20.0042 9.70424 19.2093 10.2903 18.6233C10.8763 18.0372 11.6712 17.708 12.5 17.708H66.667C67.4958 17.708 68.2907 18.0372 68.8767 18.6233C69.4628 19.2093 69.792 20.0042 69.792 20.833C69.792 21.6618 69.4628 22.4567 68.8767 23.0427C68.2907 23.6288 67.4958 23.958 66.667 23.958H12.5C11.6712 23.958 10.8763 23.6288 10.2903 23.0427C9.70424 22.4567 9.375 21.6618 9.375 20.833ZM87.5 46.875H12.5C11.6712 46.875 10.8763 47.2042 10.2903 47.7903C9.70424 48.3763 9.375 49.1712 9.375 50C9.375 50.8288 9.70424 51.6237 10.2903 52.2097C10.8763 52.7958 11.6712 53.125 12.5 53.125H87.5C88.3288 53.125 89.1237 52.7958 89.7097 52.2097C90.2958 51.6237 90.625 50.8288 90.625 50C90.625 49.1712 90.2958 48.3763 89.7097 47.7903C89.1237 47.2042 88.3288 46.875 87.5 46.875ZM50 76.042H12.5C11.6712 76.042 10.8763 76.3712 10.2903 76.9573C9.70424 77.5433 9.375 78.3382 9.375 79.167C9.375 79.9958 9.70424 80.7907 10.2903 81.3767C10.8763 81.9628 11.6712 82.292 12.5 82.292H50C50.8288 82.292 51.6237 81.9628 52.2097 81.3767C52.7958 80.7907 53.125 79.9958 53.125 79.167C53.125 78.3382 52.7958 77.5433 52.2097 76.9573C51.6237 76.3712 50.8288 76.042 50 76.042Z" fill="#8B5CF6"/>
</svg>
