<svg width="250" height="250" viewBox="0 0 250 250" fill="none" xmlns="http://www.w3.org/2000/svg">
<path d="M216.076 32L137.517 90.1118L152.165 55.8545L216.076 32Z" fill="#E17726" stroke="#E17726" stroke-width="0.25" stroke-linecap="round" stroke-linejoin="round"/>
<path d="M34.9244 32L112.766 90.5901L98.8354 55.9143L34.9244 32ZM187.797 166.698L166.872 198.623L211.651 210.939L224.446 167.415L187.797 166.698ZM26.6142 167.415L39.3485 210.939L84.0086 198.623L63.2031 166.698L26.6142 167.415Z" fill="#E27625" stroke="#E27625" stroke-width="0.25" stroke-linecap="round" stroke-linejoin="round"/>
<path d="M81.6173 112.771L69.1818 131.543L113.423 133.576L111.988 85.9268L81.6173 112.83V112.771ZM169.383 112.83L138.533 85.329L137.517 133.576L181.759 131.543L169.383 112.83ZM84.0087 198.623L110.853 185.709L87.7752 167.774L84.0087 198.623ZM140.207 185.65L166.872 198.623L163.285 167.714L140.207 185.65Z" fill="#E27625" stroke="#E27625" stroke-width="0.25" stroke-linecap="round" stroke-linejoin="round"/>
<path d="M166.872 198.623L140.207 185.709L142.36 203.047L142.12 210.401L166.872 198.623ZM84.0086 198.623L108.88 210.401L108.7 203.047L110.852 185.709L84.0086 198.623Z" fill="#D5BFB2" stroke="#D5BFB2" stroke-width="0.25" stroke-linecap="round" stroke-linejoin="round"/>
<path d="M109.298 156.235L87.1772 149.778L102.841 142.604L109.358 156.235H109.298ZM141.642 156.235L148.219 142.544L163.942 149.718L141.642 156.295V156.235Z" fill="#233447" stroke="#233447" stroke-width="0.25" stroke-linecap="round" stroke-linejoin="round"/>
<path d="M84.0087 198.623L87.8948 166.697L63.2032 167.415L84.0087 198.623ZM163.105 166.697L166.872 198.623L187.797 167.415L163.105 166.697ZM181.818 131.543L137.577 133.576L141.642 156.295L148.219 142.544L163.942 149.718L181.818 131.543ZM87.1773 149.778L102.841 142.604L109.358 156.235L113.483 133.516L69.2416 131.543L87.1773 149.778Z" fill="#CC6228" stroke="#CC6228" stroke-width="0.25" stroke-linecap="round" stroke-linejoin="round"/>
<path d="M69.2415 131.543L87.7751 167.714L87.1772 149.778L69.2415 131.543ZM163.942 149.778L163.225 167.714L181.758 131.543L163.942 149.778ZM113.483 133.576L109.298 156.295L114.559 183.079L115.755 147.745L113.483 133.576ZM137.517 133.576L135.365 147.686L136.441 183.079L141.642 156.235L137.517 133.516V133.576Z" fill="#E27525" stroke="#E27525" stroke-width="0.25" stroke-linecap="round" stroke-linejoin="round"/>
<path d="M141.642 156.235L136.441 183.079L140.207 185.709L163.225 167.774L163.942 149.778L141.642 156.235ZM87.1774 149.778L87.7752 167.714L110.853 185.65L114.559 183.079L109.358 156.235L87.1176 149.778H87.1774Z" fill="#F5841F" stroke="#F5841F" stroke-width="0.25" stroke-linecap="round" stroke-linejoin="round"/>
<path d="M142.18 210.401L142.36 203.047L140.327 201.373H110.673L108.7 203.047L108.88 210.401L84.0086 198.623L92.7373 205.797L110.374 217.934H140.566L158.263 205.738L166.872 198.623L142.12 210.401H142.18Z" fill="#C0AC9D" stroke="#C0AC9D" stroke-width="0.25" stroke-linecap="round" stroke-linejoin="round"/>
<path d="M140.207 185.65L136.441 183.079H114.559L110.852 185.709L108.7 203.047L110.673 201.373H140.327L142.36 203.047L140.207 185.709V185.65Z" fill="#161616" stroke="#161616" stroke-width="0.25" stroke-linecap="round" stroke-linejoin="round"/>
<path d="M219.424 93.8784L226 61.8929L216.076 32L140.148 88.1987L169.383 112.771L210.635 124.788L219.722 114.206L215.777 111.336L222.054 105.596L217.271 101.89L223.549 97.1068L219.364 93.8784H219.424ZM25 61.8331L31.696 93.8784L27.3914 97.047L33.7885 101.83L29.0057 105.596L35.2234 111.336L31.2775 114.206L40.365 124.788L81.6172 112.83L110.852 88.1389L34.9245 32L25 61.8331Z" fill="#763E1A" stroke="#763E1A" stroke-width="0.25" stroke-linecap="round" stroke-linejoin="round"/>
<path d="M210.635 124.788L169.383 112.83L181.818 131.543L163.285 167.714L187.797 167.415H224.446L210.635 124.788ZM81.6171 112.771L40.3649 124.788L26.6142 167.415H63.2629L87.7751 167.714L69.2415 131.543L81.6769 112.771H81.6171ZM137.517 133.576L140.207 88.1389L152.164 55.8545H98.8354L110.793 88.1389L113.483 133.576L114.499 147.805V183.079H136.441L136.56 147.805L137.517 133.576Z" fill="#F5841F" stroke="#F5841F" stroke-width="0.25" stroke-linecap="round" stroke-linejoin="round"/>
</svg>
