<svg width="100" height="100" viewBox="0 0 100 100" fill="none" xmlns="http://www.w3.org/2000/svg">
<path fill-rule="evenodd" clip-rule="evenodd" d="M50.898 13.81C50.5578 14.2721 50.3475 14.8169 50.2891 15.3877C50.2308 15.9585 50.3264 16.5346 50.566 17.056C52.705 21.712 53.759 26.315 53.759 31.452C53.759 47.598 40.155 61.399 22.688 61.399C20.813 61.399 18.867 60.945 16.47 60.365C15.8914 60.2257 15.2856 60.2496 14.7198 60.4341C14.154 60.6186 13.6505 60.9565 13.2654 61.4102C12.8802 61.8639 12.6285 62.4155 12.5382 63.0037C12.4479 63.592 12.5226 64.1937 12.754 64.742C18.523 78.382 32.533 87.5 48.838 87.5C70.304 87.5 87.5 70.39 87.5 50C87.5 30.885 72.858 14.972 53.898 12.526C53.3289 12.4527 52.7505 12.5331 52.2229 12.7589C51.6954 12.9847 51.2379 13.3476 50.898 13.81ZM58.57 20.096C71.684 24.152 81.071 36.137 81.071 50C81.071 66.706 66.888 81.071 48.838 81.071C37.396 81.071 27.546 75.834 21.799 67.806C22.094 67.82 22.391 67.828 22.688 67.828C43.574 67.828 60.188 51.278 60.188 31.452C60.188 27.465 59.645 23.729 58.57 20.096Z" fill="#8B5CF6"/>
</svg>
