<svg width="100" height="100" viewBox="0 0 100 100" fill="none" xmlns="http://www.w3.org/2000/svg">
<path d="M62.5 9.375H37.5C30.0435 9.38373 22.8948 12.3497 17.6223 17.6223C12.3497 22.8948 9.38373 30.0435 9.375 37.5V62.5C9.38373 69.9565 12.3497 77.1052 17.6223 82.3777C22.8948 87.6503 30.0435 90.6163 37.5 90.625H62.5C69.9565 90.6163 77.1052 87.6503 82.3777 82.3777C87.6503 77.1052 90.6163 69.9565 90.625 62.5V37.5C90.6163 30.0435 87.6503 22.8948 82.3777 17.6223C77.1052 12.3497 69.9565 9.38373 62.5 9.375ZM84.375 62.5C84.3684 68.2996 82.0616 73.8597 77.9607 77.9607C73.8597 82.0616 68.2996 84.3684 62.5 84.375H37.5C31.7004 84.3684 26.1403 82.0616 22.0393 77.9607C17.9384 73.8597 15.6316 68.2996 15.625 62.5V37.5C15.6316 31.7004 17.9384 26.1403 22.0393 22.0393C26.1403 17.9384 31.7004 15.6316 37.5 15.625H62.5C68.2996 15.6316 73.8597 17.9384 77.9607 22.0393C82.0616 26.1403 84.3684 31.7004 84.375 37.5V62.5ZM69.792 50C69.792 50.8288 69.4628 51.6237 68.8767 52.2097C68.2907 52.7958 67.4958 53.125 66.667 53.125H53.125V66.667C53.125 67.4958 52.7958 68.2907 52.2097 68.8767C51.6237 69.4628 50.8288 69.792 50 69.792C49.1712 69.792 48.3763 69.4628 47.7903 68.8767C47.2042 68.2907 46.875 67.4958 46.875 66.667V53.125H33.333C32.5042 53.125 31.7093 52.7958 31.1233 52.2097C30.5372 51.6237 30.208 50.8288 30.208 50C30.208 49.1712 30.5372 48.3763 31.1233 47.7903C31.7093 47.2042 32.5042 46.875 33.333 46.875H46.875V33.333C46.875 32.5042 47.2042 31.7093 47.7903 31.1233C48.3763 30.5372 49.1712 30.208 50 30.208C50.8288 30.208 51.6237 30.5372 52.2097 31.1233C52.7958 31.7093 53.125 32.5042 53.125 33.333V46.875H66.667C67.4958 46.875 68.2907 47.2042 68.8767 47.7903C69.4628 48.3763 69.792 49.1712 69.792 50Z" fill="#8B5CF6"/>
</svg>
