<svg width="50" height="50" viewBox="0 0 50 50" fill="none" xmlns="http://www.w3.org/2000/svg">
<path d="M43.598 6.40199C42.8874 5.68453 42.0016 5.1652 41.0285 4.89543C40.0553 4.62566 39.0286 4.61482 38.05 4.86399L10.731 11.696C8.99519 12.1291 7.4553 13.133 6.35863 14.5465C5.26196 15.96 4.67215 17.7011 4.68392 19.4901C4.69569 21.2791 5.30835 23.0122 6.42351 24.4112C7.53868 25.8101 9.09165 26.7937 10.833 27.204L20.512 29.481L22.796 39.167C23.1858 40.9181 24.163 42.4832 25.5651 43.6023C26.9673 44.7214 28.71 45.3272 30.504 45.319H30.562C32.3461 45.3396 34.0841 44.7527 35.4903 43.6547C36.8966 42.5566 37.8875 41.0128 38.3 39.277L45.135 11.948C45.3841 10.9698 45.3734 9.94344 45.1038 8.97066C44.8342 7.99789 44.3151 7.11243 43.598 6.40199V6.40199ZM42.102 11.194L35.273 38.508C35.0196 39.5699 34.4112 40.5134 33.5485 41.1824C32.6858 41.8515 31.6206 42.2059 30.529 42.187C29.4341 42.2004 28.3683 41.8341 27.5129 41.1505C26.6575 40.4668 26.0653 39.508 25.837 38.437L23.545 28.666L32.354 19.854C32.6246 19.5568 32.7703 19.1669 32.7609 18.7651C32.7515 18.3633 32.5877 17.9806 32.3036 17.6964C32.0194 17.4123 31.6367 17.2485 31.2349 17.2391C30.8331 17.2297 30.4432 17.3754 30.146 17.646L21.327 26.458L11.556 24.166C10.4962 23.917 9.55088 23.319 8.87189 22.4681C8.19289 21.6172 7.81966 20.5627 7.81216 19.4741C7.80466 18.3854 8.16333 17.3259 8.83053 16.4657C9.49774 15.6055 10.4347 14.9945 11.491 14.731L38.808 7.89799C39.0267 7.84284 39.2514 7.81496 39.477 7.81499C39.8897 7.81484 40.2969 7.90902 40.6676 8.09031C41.0384 8.27161 41.3627 8.53523 41.616 8.86105C41.8693 9.18686 42.0447 9.56625 42.1289 9.97024C42.2132 10.3742 42.204 10.7921 42.102 11.192V11.194Z" fill="#8B5CF6"/>
</svg>
