<svg width="100" height="100" viewBox="0 0 100 100" fill="none" xmlns="http://www.w3.org/2000/svg">
<path d="M89.708 85.292L70.15 65.729C75.8211 58.9201 78.649 50.187 78.0452 41.3462C77.4415 32.5055 73.4526 24.2379 66.9085 18.2632C60.3643 12.2885 51.7687 9.06675 42.9097 9.26814C34.0507 9.46952 25.6103 13.0785 19.3444 19.3444C13.0785 25.6103 9.46951 34.0507 9.26812 42.9097C9.06673 51.7687 12.2885 60.3644 18.2632 66.9085C24.2379 73.4527 32.5055 77.4415 41.3462 78.0452C50.1869 78.649 58.9201 75.8211 65.729 70.15L85.292 89.708C85.884 90.2621 86.6683 90.5644 87.4791 90.551C88.2899 90.5376 89.0637 90.2095 89.6371 89.6361C90.2105 89.0627 90.5386 88.2889 90.552 87.4781C90.5654 86.6673 90.2631 85.8831 89.709 85.291L89.708 85.292ZM15.625 43.75C15.625 38.1874 17.2745 32.7497 20.3649 28.1246C23.4553 23.4995 27.8478 19.8946 32.987 17.7659C38.1262 15.6372 43.7812 15.0802 49.2369 16.1654C54.6926 17.2506 59.704 19.9293 63.6374 23.8626C67.5707 27.796 70.2494 32.8074 71.3346 38.2631C72.4198 43.7188 71.8628 49.3738 69.7341 54.513C67.6054 59.6521 64.0005 64.0447 59.3754 67.1351C54.7503 70.2255 49.3126 71.875 43.75 71.875C36.2934 71.8663 29.1448 68.9003 23.8723 63.6277C18.5997 58.3552 15.6337 51.2065 15.625 43.75Z" fill="white"/>
</svg>
