<svg width="100" height="100" viewBox="0 0 100 100" fill="none" xmlns="http://www.w3.org/2000/svg">
<path d="M50 65.625C46.9097 65.625 43.8887 64.7086 41.3192 62.9917C38.7497 61.2748 36.747 58.8345 35.5644 55.9794C34.3818 53.1243 34.0723 49.9827 34.6752 46.9517C35.2781 43.9208 36.7663 41.1367 38.9515 38.9515C41.1367 36.7663 43.9208 35.2781 46.9517 34.6752C49.9827 34.0723 53.1243 34.3818 55.9794 35.5644C58.8345 36.747 61.2748 38.7497 62.9917 41.3192C64.7086 43.8887 65.625 46.9097 65.625 50C65.6205 54.1426 63.9729 58.1143 61.0436 61.0436C58.1143 63.9729 54.1426 65.6205 50 65.625ZM50 40.625C48.1458 40.625 46.3332 41.1748 44.7915 42.205C43.2498 43.2351 42.0482 44.6993 41.3386 46.4123C40.6291 48.1254 40.4434 50.0104 40.8051 51.829C41.1669 53.6475 42.0598 55.318 43.3709 56.6291C44.682 57.9402 46.3525 58.8331 48.171 59.1949C49.9896 59.5566 51.8746 59.3709 53.5877 58.6614C55.3007 57.9518 56.7649 56.7502 57.795 55.2085C58.8252 53.6668 59.375 51.8542 59.375 50C59.3729 47.5142 58.3845 45.1309 56.6268 43.3732C54.8691 41.6155 52.4858 40.6271 50 40.625ZM52.083 90.625H47.916C45.4304 90.6226 43.0473 89.6341 41.2899 87.8764C39.5324 86.1188 38.5441 83.7356 38.542 81.25C38.5473 80.9494 38.463 80.654 38.2996 80.4016C38.1363 80.1492 37.9014 79.9513 37.625 79.833H37.592C37.3404 79.7288 37.0635 79.7017 36.7964 79.7551C36.5294 79.8086 36.2842 79.9401 36.092 80.133C34.3205 81.8845 31.9345 82.8741 29.4434 82.8905C26.9523 82.907 24.5535 81.949 22.759 80.221L19.842 77.279C18.9688 76.4078 18.2761 75.3729 17.8034 74.2336C17.3307 73.0943 17.0874 71.873 17.0874 70.6395C17.0874 69.406 17.3307 68.1847 17.8034 67.0454C18.2761 65.9061 18.9688 64.8712 19.842 64C20.0489 63.7877 20.1895 63.5197 20.2465 63.2288C20.3035 62.9379 20.2745 62.6367 20.163 62.362C20.0613 62.1021 19.8844 61.8785 19.655 61.7196C19.4256 61.5608 19.154 61.4739 18.875 61.47C17.6336 61.4821 16.402 61.2485 15.2513 60.7824C14.1006 60.3164 13.0535 59.6272 12.1704 58.7546C11.2873 57.882 10.5857 56.8432 10.1059 55.6982C9.62612 54.5532 9.37771 53.3245 9.375 52.083V47.916C9.37738 45.4304 10.3659 43.0473 12.1236 41.2899C13.8812 39.5324 16.2644 38.5441 18.75 38.542C19.0503 38.5482 19.3455 38.4641 19.5974 38.3006C19.8493 38.1371 20.0463 37.9017 20.163 37.625V37.592C20.2661 37.3402 20.2926 37.0636 20.2393 36.7967C20.1859 36.5299 20.055 36.2848 19.863 36.092C18.9754 35.2259 18.2685 34.1924 17.7831 33.0512C17.2978 31.9101 17.0436 30.6839 17.0355 29.4439C17.0273 28.2038 17.2652 26.9744 17.7354 25.827C18.2057 24.6795 18.8989 23.6367 19.775 22.759L22.729 19.805C24.5129 18.0962 26.8877 17.1423 29.358 17.1423C31.8283 17.1423 34.2031 18.0962 35.987 19.805C36.1976 20.0239 36.4688 20.1749 36.7658 20.2387C37.0628 20.3025 37.3721 20.2761 37.654 20.163C37.9123 20.0615 38.1344 19.8852 38.2917 19.6566C38.4491 19.4279 38.5345 19.1575 38.537 18.88C38.5242 17.6387 38.7572 16.4072 39.2225 15.2564C39.6878 14.1056 40.3762 13.0582 41.2482 12.1747C42.1201 11.2911 43.1582 10.5889 44.3028 10.1084C45.4473 9.62787 46.6757 9.37863 47.917 9.375H52.084C54.5696 9.37738 56.9527 10.3659 58.7101 12.1236C60.4676 13.8812 61.4559 16.2644 61.458 18.75C61.443 19.0433 61.5191 19.3341 61.6757 19.5826C61.8323 19.831 62.0619 20.025 62.333 20.138C62.5965 20.2503 62.8866 20.2852 63.1692 20.2386C63.4519 20.192 63.7154 20.0659 63.929 19.875C64.7969 18.9854 65.8336 18.278 66.9785 17.7943C68.1233 17.3106 69.3532 17.0603 70.596 17.058C71.8276 17.0546 73.0477 17.2956 74.1856 17.767C75.3234 18.2383 76.3565 18.9307 77.225 19.804L80.167 22.742C81.9251 24.5001 82.9128 26.8847 82.9128 29.371C82.9128 31.8573 81.9251 34.2419 80.167 36C79.9459 36.1955 79.7908 36.4547 79.723 36.7419C79.6551 37.0291 79.6778 37.3302 79.788 37.604L79.813 37.662C79.9145 37.9189 80.0905 38.1395 80.3184 38.2955C80.5464 38.4514 80.8158 38.5355 81.092 38.537C82.3356 38.5205 83.5701 38.7507 84.7242 39.2143C85.8783 39.678 86.9289 40.3658 87.8155 41.2381C88.702 42.1104 89.4068 43.1498 89.889 44.2962C90.3713 45.4426 90.6214 46.6733 90.625 47.917V52.084C90.6229 54.5698 89.6345 56.9531 87.8768 58.7108C86.1191 60.4685 83.7358 61.4569 81.25 61.459C80.9567 61.444 80.6659 61.5201 80.4174 61.6767C80.169 61.8333 79.975 62.0629 79.862 62.334C79.7513 62.5978 79.7172 62.8875 79.7638 63.1699C79.8103 63.4522 79.9355 63.7156 80.125 63.93C81.0115 64.7972 81.7171 65.8316 82.201 66.9734C82.6849 68.1152 82.9374 69.3416 82.944 70.5817C82.9506 71.8217 82.7111 73.0508 82.2394 74.1977C81.7677 75.3445 81.0732 76.3864 80.196 77.263L77.279 80.205C75.4951 81.9138 73.1203 82.8677 70.65 82.8677C68.1797 82.8677 65.8049 81.9138 64.021 80.205C63.8252 79.9844 63.566 79.8297 63.2789 79.7618C62.9919 79.694 62.6909 79.7164 62.417 79.826C62.152 79.9298 61.9228 80.1083 61.7572 80.3397C61.5916 80.5712 61.4967 80.8457 61.484 81.13C61.4955 82.3722 61.2609 83.6044 60.7936 84.7554C60.3264 85.9064 59.6359 86.9535 58.7619 87.8363C57.8879 88.719 56.8477 89.42 55.7013 89.8986C54.555 90.3772 53.3252 90.6241 52.083 90.625ZM40.379 74.242C41.6821 74.8675 42.7852 75.8436 43.5645 77.061C44.3438 78.2783 44.7685 79.6887 44.791 81.134C44.7793 81.5531 44.8512 81.9703 45.0027 82.3613C45.1541 82.7523 45.382 83.1091 45.673 83.411C45.9639 83.7129 46.3122 83.9537 46.6973 84.1194C47.0824 84.2851 47.4967 84.3723 47.916 84.376H52.083C52.9118 84.376 53.7067 84.0468 54.2927 83.4607C54.8788 82.8747 55.208 82.0798 55.208 81.251C55.2077 79.7088 55.6649 78.2012 56.5216 76.9189C57.3784 75.6365 58.5962 74.6371 60.021 74.047C61.4143 73.4695 62.948 73.3197 64.4267 73.6165C65.9055 73.9134 67.2625 74.6435 68.325 75.714C68.6122 76.0208 68.958 76.267 69.3419 76.438C69.7259 76.609 70.1402 76.7013 70.5604 76.7095C70.9806 76.7177 71.3982 76.6417 71.7886 76.4858C72.1789 76.3299 72.534 76.0974 72.833 75.802L75.775 72.885C76.362 72.2975 76.6918 71.501 76.6918 70.6705C76.6918 69.84 76.362 69.0435 75.775 68.456C74.7048 67.3786 73.972 66.0125 73.6663 64.525C73.3606 63.0375 73.4953 61.4931 74.054 60.081V60.023L74.083 59.952C74.6559 58.5554 75.6324 57.3614 76.8876 56.5228C78.1427 55.6841 79.6195 55.2389 81.129 55.244C81.5475 55.255 81.964 55.1826 82.3542 55.0308C82.7443 54.879 83.1003 54.651 83.4013 54.36C83.7023 54.069 83.9423 53.721 84.1073 53.3362C84.2722 52.9514 84.3588 52.5376 84.362 52.119V47.952C84.362 47.1232 84.0328 46.3283 83.4467 45.7423C82.8607 45.1562 82.0658 44.827 81.237 44.827C79.7097 44.8461 78.2115 44.408 76.9351 43.5691C75.6587 42.7301 74.6623 41.5286 74.074 40.119C73.4658 38.7097 73.2956 37.15 73.5856 35.6426C73.8756 34.1353 74.6123 32.7501 75.7 31.667C76.0141 31.3714 76.265 31.0151 76.4375 30.6198C76.6101 30.2245 76.7007 29.7983 76.704 29.367C76.7051 28.9566 76.6247 28.55 76.4672 28.1709C76.3098 27.7919 76.0786 27.4479 75.787 27.159L72.87 24.217C72.5792 23.9268 72.2341 23.6968 71.8544 23.5402C71.4747 23.3835 71.0678 23.3033 70.657 23.304C70.2453 23.302 69.8374 23.3824 69.4573 23.5406C69.0772 23.6988 68.7327 23.9315 68.444 24.225C67.3654 25.2934 65.9994 26.0249 64.5123 26.3305C63.0253 26.6361 61.4815 26.5025 60.069 25.946H60.011L59.94 25.917C58.5434 25.3441 57.3494 24.3676 56.5108 23.1124C55.6721 21.8573 55.2269 20.3805 55.232 18.871C55.243 18.4525 55.1706 18.036 55.0188 17.6458C54.867 17.2557 54.639 16.8997 54.348 16.5987C54.057 16.2977 53.709 16.0577 53.3242 15.8927C52.9394 15.7278 52.5256 15.6412 52.107 15.638H47.94C47.1112 15.638 46.3163 15.9672 45.7303 16.5533C45.1442 17.1393 44.815 17.9342 44.815 18.763C44.8295 20.3 44.3812 21.8058 43.5284 23.0846C42.6755 24.3633 41.4576 25.3558 40.033 25.933C38.6315 26.5078 37.0922 26.6594 35.6055 26.3692C34.1187 26.079 32.7495 25.3596 31.667 24.3C31.3792 23.9954 31.0337 23.7512 30.6505 23.5816C30.2673 23.4121 29.8542 23.3206 29.4353 23.3125C29.0163 23.3044 28.6 23.3799 28.2105 23.5345C27.821 23.6891 27.4663 23.9198 27.167 24.213L24.213 27.167C23.9226 27.4572 23.6922 27.8018 23.535 28.1811C23.3778 28.5604 23.2969 28.9669 23.2969 29.3775C23.2969 29.7881 23.3778 30.1946 23.535 30.5739C23.6922 30.9532 23.9226 31.2978 24.213 31.588C25.311 32.6554 26.0637 34.0274 26.3741 35.5269C26.6844 37.0264 26.5381 38.5845 25.954 40C25.897 40.1428 25.8315 40.282 25.758 40.417C25.1274 41.713 24.1492 42.8084 22.9324 43.5809C21.7156 44.3534 20.3082 44.7727 18.867 44.792C18.4479 44.7803 18.0307 44.8522 17.6397 45.0037C17.2487 45.1551 16.8919 45.383 16.59 45.674C16.2882 45.9649 16.0473 46.3132 15.8816 46.6983C15.7159 47.0834 15.6287 47.4977 15.625 47.917V52.084C15.625 52.9128 15.9542 53.7077 16.5403 54.2937C17.1263 54.8798 17.9212 55.209 18.75 55.209C20.279 55.1896 21.7787 55.6295 23.0548 56.4719C24.331 57.3143 25.3249 58.5204 25.908 59.934L25.933 59.988V60.046C26.4916 61.4473 26.6314 62.9806 26.3355 64.4598C26.0396 65.9389 25.3207 67.3004 24.266 68.379C23.9631 68.6663 23.7208 69.0112 23.5533 69.3935C23.3858 69.7759 23.2965 70.1878 23.2906 70.6052C23.2847 71.0226 23.3624 71.4369 23.5191 71.8238C23.6758 72.2107 23.9083 72.5623 24.203 72.858L27.145 75.775C27.7404 76.3438 28.5321 76.6612 29.3555 76.6612C30.1789 76.6612 30.9706 76.3438 31.566 75.775C32.6369 74.6752 34.0135 73.9224 35.5172 73.6141C37.021 73.3058 38.5827 73.4563 40 74.046C40.1298 74.1043 40.2564 74.1698 40.379 74.242Z" fill="#8B5CF6"/>
</svg>
