<svg width="50" height="50" viewBox="0 0 50 50" xmlns="http://www.w3.org/2000/svg"><path data-name="users-Regular" d="M34.896 36.748v1.056a7.302 7.302 0 0 1 -1.894 4.913 1.563 1.563 0 1 1 -2.317 -2.092 4.167 4.167 0 0 0 1.085 -2.813v-1.056a6.117 6.117 0 0 0 -4.638 -5.96 1.875 1.875 0 0 0 -1.369 0.173 12.45 12.45 0 0 1 -11.929 0 1.894 1.894 0 0 0 -1.383 -0.183 6.121 6.121 0 0 0 -4.64 5.963v1.056a4.185 4.185 0 0 0 1.085 2.821 1.563 1.563 0 0 1 -2.317 2.083 7.292 7.292 0 0 1 -1.894 -4.91v-1.056a9.238 9.238 0 0 1 7.008 -8.994 5.052 5.052 0 0 1 3.66 0.483 9.294 9.294 0 0 0 8.888 0 5.044 5.044 0 0 1 3.646 -0.475 9.238 9.238 0 0 1 7.006 8.992Zm3.408 -8.994a1.563 1.563 0 1 0 -0.754 3.033 6.117 6.117 0 0 1 4.638 5.96v1.056a4.167 4.167 0 0 1 -1.085 2.813 1.563 1.563 0 0 0 2.317 2.092 7.302 7.302 0 0 0 1.894 -4.913v-1.056a9.238 9.238 0 0 0 -7.008 -8.985ZM9.896 16.667a9.896 9.896 0 1 1 9.896 9.896A9.908 9.908 0 0 1 9.896 16.667Zm3.125 0A6.771 6.771 0 1 0 19.792 9.896 6.779 6.779 0 0 0 13.021 16.667Zm27.083 0a9.902 9.902 0 0 0 -8.66 -9.819 1.563 1.563 0 0 0 -0.388 3.1 6.773 6.773 0 0 1 3.383 12.006 1.563 1.563 0 0 0 1.956 2.438A9.865 9.865 0 0 0 40.104 16.667Z" style="fill:#808191"/></svg>