<svg width="100" height="100" viewBox="0 0 100 100" fill="none" xmlns="http://www.w3.org/2000/svg">
<path d="M90.204 42.392C89.7023 40.8239 88.7669 39.4298 87.506 38.371C86.2451 37.3122 84.7103 36.632 83.079 36.409L65.662 33.909L57.883 18.383C57.1447 16.9262 56.0172 15.7024 54.6256 14.8475C53.234 13.9926 51.6327 13.5401 49.9995 13.5401C48.3663 13.5401 46.765 13.9926 45.3734 14.8475C43.9818 15.7024 42.8543 16.9262 42.116 18.383L34.337 33.917L16.92 36.417C15.2889 36.6388 13.7539 37.3181 12.4929 38.3762C11.232 39.4344 10.2965 40.8281 9.79501 42.396C9.29221 43.9419 9.23744 45.5986 9.63704 47.1744C10.0366 48.7501 10.8743 50.1805 12.053 51.3L24.628 63.383L21.667 80.417C21.3848 82.0114 21.5571 83.6531 22.1642 85.1541C22.7713 86.6552 23.7887 87.9551 25.1 88.905C26.4288 89.8875 28.0073 90.4762 29.655 90.6037C31.3026 90.7312 32.9529 90.3924 34.417 89.626L50 81.546L65.588 89.621C67.0528 90.3849 68.7026 90.7224 70.3498 90.5949C71.9969 90.4675 73.5752 89.8802 74.905 88.9C76.2142 87.9495 77.2298 86.6502 77.8359 85.1502C78.442 83.6503 78.6143 82.0102 78.333 80.417L75.366 63.371L87.941 51.288C89.1191 50.1698 89.9568 48.741 90.3572 47.1668C90.7577 45.5926 90.7046 43.9373 90.204 42.392ZM83.616 46.788L69.842 60C69.4736 60.3547 69.1977 60.7943 69.0385 61.2804C68.8793 61.7664 68.8418 62.2841 68.929 62.788L72.179 81.471C72.2613 81.9177 72.2135 82.3786 72.0413 82.7989C71.8692 83.2193 71.58 83.5813 71.208 83.842C70.8167 84.1322 70.3513 84.3061 69.8655 84.3436C69.3798 84.3811 68.8933 84.2807 68.462 84.054L51.438 75.25C50.9938 75.0199 50.5008 74.8997 50.0005 74.8997C49.5002 74.8997 49.0072 75.0199 48.563 75.25L31.538 84.071C31.1073 84.2997 30.6204 84.4013 30.1342 84.3637C29.648 84.3262 29.1825 84.1511 28.792 83.859C28.4201 83.5983 28.1308 83.2363 27.9587 82.8159C27.7865 82.3956 27.7388 81.9347 27.821 81.488L31.071 62.805C31.1583 62.3011 31.1207 61.7834 30.9615 61.2974C30.8023 60.8113 30.5265 60.3717 30.158 60.017L16.383 46.788C16.0448 46.4786 15.8043 46.0773 15.691 45.6332C15.5777 45.1891 15.5964 44.7216 15.745 44.288C15.8871 43.8311 16.1603 43.4261 16.5306 43.1232C16.9009 42.8202 17.3521 42.6327 17.828 42.584L36.842 39.875C37.3416 39.8031 37.8162 39.6112 38.2255 39.3159C38.6347 39.0205 38.9664 38.6305 39.192 38.179L47.705 21.183C47.9244 20.7651 48.2538 20.4152 48.6577 20.171C49.0616 19.9269 49.5246 19.7978 49.9965 19.7978C50.4685 19.7978 50.9314 19.9269 51.3353 20.171C51.7392 20.4152 52.0687 20.7651 52.288 21.183L60.801 38.179C61.0266 38.6305 61.3583 39.0205 61.7675 39.3159C62.1768 39.6112 62.6515 39.8031 63.151 39.875L82.184 42.596C82.6601 42.6461 83.1111 42.8345 83.4813 43.138C83.8515 43.4416 84.1246 43.8469 84.267 44.304C84.4108 44.7365 84.4259 45.2015 84.3105 45.6424C84.1951 46.0834 83.9542 46.4813 83.617 46.788H83.616Z" fill="#8B5CF6"/>
</svg>
