<svg width="250" height="250" viewBox="0 0 250 250" fill="none" xmlns="http://www.w3.org/2000/svg">
<path fill-rule="evenodd" clip-rule="evenodd" d="M98.0811 94.2087C95.9424 94.2087 94.2087 95.9424 94.2087 98.0811V151.919C94.2087 154.058 95.9424 155.791 98.0811 155.791H151.919C154.058 155.791 155.791 154.058 155.791 151.919V98.0811C155.791 95.9424 154.058 94.2087 151.919 94.2087H98.0811ZM72.3981 68.8511C70.4391 68.8511 68.8511 70.4391 68.8511 72.3981V177.602C68.8511 179.561 70.4391 181.149 72.3981 181.149H177.602C179.561 181.149 181.149 179.561 181.149 177.602V72.3981C181.149 70.4391 179.561 68.8511 177.602 68.8511H72.3981Z" fill="white"/>
<path fill-rule="evenodd" clip-rule="evenodd" d="M34 192.766V126.936H61.1064V181.149C61.1064 181.731 61.1707 182.297 61.2923 182.842L38.1349 206C35.528 202.245 34 197.684 34 192.766ZM43.5457 211.541C47.3847 214.345 52.116 216 57.234 216H123.064V188.894H68.8511C68.0472 188.894 67.2723 188.771 66.5431 188.544L43.5457 211.541ZM130.809 188.894V216H192.766C205.598 216 216 205.598 216 192.766V57.234C216 44.4023 205.598 34 192.766 34H126.936V61.1064H181.149C185.426 61.1064 188.894 64.5737 188.894 68.8511V181.149C188.894 185.426 185.426 188.894 181.149 188.894H130.809Z" fill="url(#paint0_linear_22_10)"/>
<defs>
<linearGradient id="paint0_linear_22_10" x1="133.948" y1="46.7969" x2="44.3728" y2="135.765" gradientUnits="userSpaceOnUse">
<stop stop-color="#0096FF"/>
<stop offset="1" stop-color="#FF1E56"/>
</linearGradient>
</defs>
</svg>
