<svg width="100" height="100" viewBox="0 0 100 100" fill="none" xmlns="http://www.w3.org/2000/svg">
<path d="M35.292 31.379C35.0016 31.0888 34.7712 30.7442 34.614 30.3649C34.4568 29.9856 34.3759 29.5791 34.3759 29.1685C34.3759 28.7579 34.4568 28.3514 34.614 27.9721C34.7712 27.5928 35.0016 27.2482 35.292 26.958L47.792 14.458C48.0819 14.1677 48.4261 13.9374 48.8051 13.7803C49.184 13.6231 49.5903 13.5423 50.0005 13.5423C50.4107 13.5423 50.817 13.6231 51.1959 13.7803C51.5749 13.9374 51.9191 14.1677 52.209 14.458L64.709 26.958C65.282 27.5465 65.6003 28.3369 65.5951 29.1582C65.5898 29.9796 65.2614 30.7658 64.6808 31.3469C64.1003 31.9279 63.3144 32.2571 62.493 32.2631C61.6717 32.2691 60.881 31.9515 60.292 31.379L53.125 24.212V45.833C53.125 46.6618 52.7958 47.4567 52.2097 48.0427C51.6237 48.6288 50.8288 48.958 50 48.958C49.1712 48.958 48.3763 48.6288 47.7903 48.0427C47.2042 47.4567 46.875 46.6618 46.875 45.833V24.213L39.708 31.38C39.1215 31.9643 38.3274 32.2924 37.4995 32.2924C36.6716 32.2924 35.8775 31.9643 35.291 31.38L35.292 31.379ZM70.833 42.708C70.0042 42.708 69.2093 43.0372 68.6233 43.6233C68.0372 44.2093 67.708 45.0042 67.708 45.833C67.708 46.6618 68.0372 47.4567 68.6233 48.0427C69.2093 48.6288 70.0042 48.958 70.833 48.958C74.4233 48.9622 77.8653 50.3903 80.404 52.929C82.9427 55.4677 84.3708 58.9097 84.375 62.5V66.667C84.3705 70.2571 82.9423 73.6988 80.4036 76.2373C77.8649 78.7758 74.4231 80.2038 70.833 80.208H29.167C25.5769 80.2038 22.1351 78.7758 19.5964 76.2373C17.0577 73.6988 15.6295 70.2571 15.625 66.667V62.5C15.6292 58.9097 17.0573 55.4677 19.596 52.929C22.1347 50.3903 25.5767 48.9622 29.167 48.958C29.9958 48.958 30.7907 48.6288 31.3767 48.0427C31.9628 47.4567 32.292 46.6618 32.292 45.833C32.292 45.0042 31.9628 44.2093 31.3767 43.6233C30.7907 43.0372 29.9958 42.708 29.167 42.708C23.9199 42.7146 18.8895 44.802 15.1792 48.5122C11.469 52.2225 9.38162 57.2529 9.375 62.5V66.667C9.38188 71.914 11.4693 76.944 15.1796 80.6541C18.8899 84.3642 23.92 86.4514 29.167 86.458H70.834C76.0808 86.4511 81.1107 84.3638 84.8208 80.6538C88.5308 76.9437 90.6181 71.9138 90.625 66.667V62.5C90.6184 57.2529 88.531 52.2225 84.8207 48.5122C81.1105 44.802 76.0801 42.7146 70.833 42.708ZM75 62.5C75 61.6758 74.7556 60.8702 74.2977 60.1849C73.8399 59.4997 73.1891 58.9656 72.4276 58.6502C71.6662 58.3348 70.8284 58.2523 70.0201 58.4131C69.2117 58.5739 68.4692 58.9707 67.8865 59.5535C67.3037 60.1362 66.9069 60.8787 66.7461 61.6871C66.5853 62.4954 66.6678 63.3332 66.9832 64.0946C67.2986 64.8561 67.8327 65.5069 68.5179 65.9647C69.2032 66.4226 70.0088 66.667 70.833 66.667C71.3802 66.667 71.9221 66.5592 72.4276 66.3498C72.9332 66.1404 73.3926 65.8335 73.7795 65.4465C74.1665 65.0596 74.4734 64.6002 74.6828 64.0946C74.8922 63.5891 75 63.0472 75 62.5Z" fill="#8B5CF6"/>
</svg>
