<svg width="100" height="100" viewBox="0 0 100 100" fill="none" xmlns="http://www.w3.org/2000/svg">
<path d="M85.579 60.667L64.629 81.667C58.8698 87.3913 51.0821 90.6081 42.962 90.617C39.09 90.6484 35.2504 89.9102 31.6661 88.4451C28.0819 86.9801 24.8244 84.8175 22.083 82.083C16.5067 76.3621 13.4207 68.6671 13.4989 60.6785C13.577 52.6899 16.8129 45.0568 22.5 39.446L46.363 15.513C48.3025 13.5654 50.6076 12.02 53.146 10.9655C55.6843 9.91097 58.4059 9.36814 61.1545 9.36814C63.9031 9.36814 66.6247 9.91097 69.1631 10.9655C71.7014 12.02 74.0065 13.5654 75.946 15.513C79.8587 19.4499 82.0548 24.775 82.0548 30.3255C82.0548 35.876 79.8587 41.2011 75.946 45.138L51.946 69.167C49.6589 71.3571 46.6146 72.5796 43.448 72.5796C40.2814 72.5796 37.2371 71.3571 34.95 69.167C32.7056 66.9039 31.4463 63.8458 31.4463 60.6585C31.4463 57.4712 32.7056 54.4131 34.95 52.15L56.013 31.025C56.6047 30.467 57.3903 30.1612 58.2035 30.1726C59.0168 30.1839 59.7936 30.5114 60.3695 31.0857C60.9453 31.66 61.2749 32.436 61.2885 33.2492C61.302 34.0623 60.9984 34.8488 60.442 35.442L39.379 56.579C38.2964 57.6673 37.6887 59.1399 37.6887 60.675C37.6887 62.2101 38.2964 63.6827 39.379 64.771C40.4738 65.8218 41.9325 66.4086 43.45 66.4086C44.9675 66.4086 46.4262 65.8218 47.521 64.771L71.5 40.721C74.2465 37.9581 75.7881 34.2207 75.7881 30.325C75.7881 26.4293 74.2465 22.6919 71.5 19.929C68.714 17.2574 65.0034 15.7657 61.1435 15.7657C57.2836 15.7657 53.573 17.2574 50.787 19.929L26.921 43.858C22.4765 48.3366 19.9501 54.3694 19.8769 60.6786C19.8038 66.9877 22.1896 73.0776 26.529 77.658C28.6883 79.8106 31.2536 81.5129 34.0761 82.666C36.8987 83.8191 39.9221 84.4 42.971 84.375C49.429 84.3674 55.6226 81.8095 60.204 77.258L81.154 56.25C81.7397 55.6632 82.5346 55.3331 83.3637 55.3324C84.1928 55.3316 84.9882 55.6603 85.575 56.246C86.1618 56.8317 86.4919 57.6266 86.4926 58.4557C86.4934 59.2848 86.1647 60.0802 85.579 60.667Z" fill="#8B5CF6"/>
</svg>
