<svg width="100" height="100" viewBox="0 0 100 100" fill="none" xmlns="http://www.w3.org/2000/svg">
<path d="M50 53.125C54.3265 53.125 58.5558 51.8421 62.1531 49.4384C65.7504 47.0347 68.5542 43.6183 70.2099 39.6212C71.8655 35.6241 72.2987 31.2257 71.4547 26.9824C70.6106 22.7391 68.5272 18.8413 65.468 15.782C62.4087 12.7228 58.5109 10.6394 54.2676 9.79532C50.0243 8.95127 45.6259 9.38447 41.6288 11.0401C37.6317 12.6958 34.2153 15.4996 31.8116 19.0969C29.4079 22.6942 28.125 26.9235 28.125 31.25C28.1316 37.0496 30.4384 42.6097 34.5393 46.7106C38.6403 50.8116 44.2004 53.1184 50 53.125ZM50 15.625C53.0903 15.625 56.1113 16.5414 58.6808 18.2583C61.2503 19.9752 63.253 22.4155 64.4356 25.2706C65.6182 28.1257 65.9277 31.2673 65.3248 34.2983C64.7219 37.3292 63.2337 40.1133 61.0485 42.2985C58.8633 44.4837 56.0792 45.9719 53.0483 46.5748C50.0173 47.1777 46.8757 46.8682 44.0206 45.6856C41.1655 44.503 38.7252 42.5003 37.0083 39.9308C35.2914 37.3613 34.375 34.3403 34.375 31.25C34.3795 27.1074 36.0271 23.1357 38.9564 20.2064C41.8857 17.2771 45.8574 15.6295 50 15.625ZM82.292 74.863V79.075C82.3001 82.9518 80.874 86.6946 78.288 89.583C78.0152 89.8919 77.6841 90.1438 77.3136 90.3242C76.9431 90.5046 76.5406 90.61 76.1292 90.6342C75.7178 90.6584 75.3057 90.6011 74.9166 90.4654C74.5275 90.3297 74.1691 90.1184 73.8619 89.8437C73.5548 89.5689 73.305 89.2361 73.127 88.8645C72.949 88.4928 72.8463 88.0896 72.8248 87.6781C72.8032 87.2666 72.8632 86.8548 73.0014 86.4666C73.1396 86.0784 73.3533 85.7213 73.63 85.416C75.1883 83.6715 76.0476 81.4131 76.043 79.074V74.862C76.0708 71.8312 75.0838 68.8783 73.2392 66.4734C71.3946 64.0684 68.7984 62.3498 65.864 61.591C64.8129 61.3248 63.6997 61.4741 62.756 62.008C58.8571 64.1695 54.4724 65.3035 50.0145 65.3035C45.5566 65.3035 41.1719 64.1695 37.273 62.008C36.3232 61.4695 35.2017 61.3201 34.144 61.591C31.2095 62.3505 28.613 64.0691 26.7674 66.4737C24.9218 68.8783 23.9329 71.8309 23.958 74.862V79.074C23.9532 81.4134 24.8125 83.6723 26.371 85.417C26.6477 85.7223 26.8614 86.0794 26.9996 86.4676C27.1378 86.8558 27.1978 87.2676 27.1762 87.6791C27.1547 88.0906 27.052 88.4938 26.874 88.8655C26.696 89.2371 26.4462 89.5699 26.1391 89.8447C25.8319 90.1194 25.4735 90.3307 25.0844 90.4664C24.6953 90.6021 24.2832 90.6594 23.8718 90.6352C23.4604 90.611 23.0579 90.5056 22.6874 90.3252C22.3169 90.1448 21.9858 89.8929 21.713 89.584C19.127 86.6956 17.7009 82.9528 17.709 79.076V74.862C17.6811 70.4388 19.1328 66.1334 21.8334 62.6302C24.534 59.1271 28.3283 56.6275 32.613 55.529C35.2249 54.8722 37.9891 55.2404 40.338 56.558C43.2999 58.1951 46.6288 59.0539 50.013 59.0539C53.3972 59.0539 56.7261 58.1951 59.688 56.558C62.0321 55.2483 64.7883 54.8845 67.392 55.541C71.6739 56.6398 75.4659 59.1379 78.1655 62.6385C80.8651 66.1391 82.3175 70.4414 82.292 74.862V74.863Z" fill="#8B5CF6"/>
</svg>
