<svg width="100" height="100" viewBox="0 0 100 100" fill="none" xmlns="http://www.w3.org/2000/svg">
<path d="M86.3417 31.3333C85.0471 30.6387 83.5884 30.3083 82.1209 30.3773C80.6534 30.4463 79.232 30.912 78.0083 31.725L65.4667 40.0583C65.0725 35.1169 62.8349 30.5042 59.1979 27.1358C55.5609 23.7675 50.7905 21.8896 45.8333 21.875H29.1667C23.9196 21.8816 18.8894 23.9689 15.1792 27.6792C11.4689 31.3894 9.38162 36.4196 9.375 41.6667V58.3333C9.38162 63.5804 11.4689 68.6106 15.1792 72.3209C18.8894 76.0311 23.9196 78.1184 29.1667 78.125H45.8333C50.7904 78.1092 55.5604 76.2303 59.1966 72.8612C62.8328 69.4921 65.0694 64.879 65.4625 59.9375L78.0042 68.2708C79.2281 69.0839 80.6496 69.5498 82.1174 69.619C83.5852 69.6882 85.0442 69.3581 86.3392 68.6638C87.6342 67.9694 88.7167 66.9369 89.4714 65.6762C90.2261 64.4154 90.6248 62.9736 90.625 61.5042V38.4917C90.6262 37.0225 90.2283 35.5805 89.4739 34.3198C88.7195 33.059 87.6369 32.0268 86.3417 31.3333ZM59.375 58.3333C59.3706 61.9235 57.9425 65.3653 55.4039 67.9039C52.8653 70.4425 49.4235 71.8706 45.8333 71.875H29.1667C25.5765 71.8706 22.1347 70.4425 19.5961 67.9039C17.0575 65.3653 15.6294 61.9235 15.625 58.3333V41.6667C15.6294 38.0765 17.0575 34.6347 19.5961 32.0961C22.1347 29.5575 25.5765 28.1294 29.1667 28.125H45.8333C49.4235 28.1294 52.8653 29.5575 55.4039 32.0961C57.9425 34.6347 59.3706 38.0765 59.375 41.6667V58.3333ZM84.375 61.5083C84.3756 61.8482 84.2839 62.1818 84.1096 62.4735C83.9353 62.7652 83.685 63.0041 83.3854 63.1646C83.0859 63.3251 82.7483 63.4011 82.4089 63.3846C82.0695 63.3681 81.7409 63.2596 81.4583 63.0708L65.625 52.5417V47.4583L81.4583 36.9333C81.7406 36.7447 82.0688 36.6363 82.4078 36.6196C82.7469 36.6029 83.0842 36.6786 83.3836 36.8386C83.683 36.9986 83.9334 37.2368 84.108 37.528C84.2826 37.8191 84.3749 38.1522 84.375 38.4917V61.5083Z" fill="#8B5CF6"/>
</svg>
